<svg width="30" height="30" viewBox="0 0 30 30" fill="none" xmlns="http://www.w3.org/2000/svg">
<g opacity="0.8">
<path d="M15.781 2.97537L15.7815 2.9758L27.031 14.2254C27.0311 14.2254 27.0312 14.2255 27.0313 14.2256C27.1331 14.3283 27.2137 14.4501 27.2684 14.5841C27.3231 14.7181 27.3509 14.8616 27.35 15.0064V15.0072C27.35 15.299 27.2341 15.5788 27.0279 15.7851C26.8216 15.9913 26.5418 16.1072 26.25 16.1072H25H24.85V16.2572V25.0072C24.85 25.6305 24.6024 26.2282 24.1617 26.6689C23.721 27.1096 23.1233 27.3572 22.5 27.3572H7.50004C6.87678 27.3572 6.27905 27.1096 5.83834 26.6689C5.39763 26.2282 5.15004 25.6305 5.15004 25.0072V16.2572V16.1072H5.00004L3.75004 16.1072L3.74917 16.1072C3.6044 16.1081 3.4609 16.0803 3.32687 16.0256L3.27015 16.1644L3.32687 16.0256C3.19285 15.9708 3.07095 15.8902 2.96817 15.7882L2.86254 15.8947L2.96817 15.7882C2.86507 15.686 2.78323 15.5643 2.72739 15.4303L2.58924 15.4878L2.72739 15.4303C2.67154 15.2962 2.64279 15.1524 2.64279 15.0072C2.64279 14.862 2.67154 14.7182 2.72739 14.5842L2.58924 14.5266L2.72739 14.5842C2.78323 14.4502 2.86507 14.3285 2.96817 14.2262L2.9686 14.2258L14.2186 2.9758L14.219 2.97537C14.3213 2.87227 14.443 2.79043 14.577 2.73459L14.5195 2.59644L14.577 2.73459C14.711 2.67874 14.8548 2.64999 15 2.64999C15.1453 2.64999 15.289 2.67874 15.4231 2.73459L15.4806 2.59644L15.4231 2.73459C15.5571 2.79043 15.6788 2.87227 15.781 2.97537ZM27.1339 15.8911C27.3683 15.6567 27.5 15.3388 27.5 15.0072L4.85004 16.2572H5.00004V16.4072V25.0072C5.00004 25.6703 5.26343 26.3062 5.73227 26.775C6.20111 27.2438 6.837 27.5072 7.50004 27.5072H22.5C23.1631 27.5072 23.799 27.2438 24.2678 26.775C24.7366 26.3062 25 25.6703 25 25.0072V16.4072V16.2572H25.15H26.25C26.5816 16.2572 26.8995 16.1255 27.1339 15.8911ZM7.35004 25.0072V25.1572H7.50004H22.5H22.65V25.0072V13.0197V12.9576L22.6061 12.9137L15.1061 5.41367L15 5.3076L14.894 5.41367L7.39397 12.9137L7.35004 12.9576V13.0197V25.0072Z" fill="white" stroke="#101010" stroke-width="0.3"/>
</g>
</svg>
