<svg width="30" height="30" viewBox="0 0 30 30" fill="none" xmlns="http://www.w3.org/2000/svg">
<mask id="path-1-inside-1_12_4" fill="white">
<path d="M26.4306 0.880646L21.5181 1.85565L24.9431 6.28065L27.4056 5.78065L26.4306 0.880646ZM17.8431 2.58065L15.3806 3.06815L18.8181 7.48065L21.2681 6.99315L17.8431 2.58065ZM11.7181 3.78065L9.25562 4.29315L12.6931 8.70564L15.1431 8.21815L11.7181 3.78065ZM5.58062 5.03065L4.35562 5.26815C4.03361 5.33164 3.72731 5.45808 3.45427 5.6402C3.18124 5.82233 2.94684 6.05656 2.76451 6.32946C2.58219 6.60236 2.45553 6.90858 2.3918 7.23053C2.32807 7.55249 2.32851 7.88386 2.39312 8.20565L2.88062 10.6556L9.00562 9.44314L5.58062 5.03065ZM25.3806 13.1556V23.1556H5.38062V13.1556H25.3806ZM27.8806 10.6556H2.88062V23.1556C2.88062 23.8187 3.14401 24.4546 3.61285 24.9234C4.08169 25.3923 4.71758 25.6556 5.38062 25.6556H25.3806C26.7681 25.6556 27.8806 24.5431 27.8806 23.1556V10.6556Z"/>
</mask>
<path d="M26.4306 0.880646L21.5181 1.85565L24.9431 6.28065L27.4056 5.78065L26.4306 0.880646ZM17.8431 2.58065L15.3806 3.06815L18.8181 7.48065L21.2681 6.99315L17.8431 2.58065ZM11.7181 3.78065L9.25562 4.29315L12.6931 8.70564L15.1431 8.21815L11.7181 3.78065ZM5.58062 5.03065L4.35562 5.26815C4.03361 5.33164 3.72731 5.45808 3.45427 5.6402C3.18124 5.82233 2.94684 6.05656 2.76451 6.32946C2.58219 6.60236 2.45553 6.90858 2.3918 7.23053C2.32807 7.55249 2.32851 7.88386 2.39312 8.20565L2.88062 10.6556L9.00562 9.44314L5.58062 5.03065ZM25.3806 13.1556V23.1556H5.38062V13.1556H25.3806ZM27.8806 10.6556H2.88062V23.1556C2.88062 23.8187 3.14401 24.4546 3.61285 24.9234C4.08169 25.3923 4.71758 25.6556 5.38062 25.6556H25.3806C26.7681 25.6556 27.8806 24.5431 27.8806 23.1556V10.6556Z" fill="white"/>
<path d="M21.5181 1.85565L21.4208 1.36521L20.628 1.52255L21.1227 2.16169L21.5181 1.85565ZM24.9431 6.28065L24.5477 6.58669L24.738 6.8325L25.0426 6.77065L24.9431 6.28065ZM27.4056 5.78065L27.5051 6.27065L27.9932 6.17154L27.896 5.68307L27.4056 5.78065ZM15.3806 3.06815L15.2835 2.57766L14.4875 2.73526L14.9862 3.37543L15.3806 3.06815ZM18.8181 7.48065L18.4237 7.78793L18.6132 8.03122L18.9157 7.97103L18.8181 7.48065ZM21.2681 6.99315L21.3657 7.48353L22.1592 7.32565L21.6631 6.68656L21.2681 6.99315ZM11.7181 3.78065L12.1139 3.47514L11.9227 3.22736L11.6162 3.29113L11.7181 3.78065ZM9.25562 4.29315L9.15374 3.80363L8.36787 3.96719L8.86118 4.60043L9.25562 4.29315ZM12.6931 8.70564L12.2987 9.01292L12.4882 9.25622L12.7907 9.19603L12.6931 8.70564ZM15.1431 8.21815L15.2407 8.70853L16.0317 8.55113L15.5389 7.91264L15.1431 8.21815ZM5.58062 5.03065L5.97559 4.72406L5.78715 4.48129L5.48545 4.53979L5.58062 5.03065ZM4.35562 5.26815L4.26045 4.77728L4.25888 4.77759L4.35562 5.26815ZM2.39312 8.20565L2.8835 8.10807L2.88334 8.10723L2.39312 8.20565ZM2.88062 10.6556L2.39023 10.7532L2.48771 11.2431L2.97771 11.1461L2.88062 10.6556ZM9.00562 9.44314L9.10271 9.93363L9.8972 9.77635L9.40059 9.13656L9.00562 9.44314ZM25.3806 13.1556H25.8806V12.6556H25.3806V13.1556ZM25.3806 23.1556V23.6556H25.8806V23.1556H25.3806ZM5.38062 23.1556H4.88062V23.6556H5.38062V23.1556ZM5.38062 13.1556V12.6556H4.88062V13.1556H5.38062ZM27.8806 10.6556H28.3806V10.1556H27.8806V10.6556ZM2.88062 10.6556V10.1556H2.38062V10.6556H2.88062ZM2.88062 23.1556H2.38062H2.88062ZM26.3333 0.390212L21.4208 1.36521L21.6155 2.34608L26.528 1.37108L26.3333 0.390212ZM21.1227 2.16169L24.5477 6.58669L25.3385 5.9746L21.9135 1.5496L21.1227 2.16169ZM25.0426 6.77065L27.5051 6.27065L27.3061 5.29064L24.8436 5.79064L25.0426 6.77065ZM27.896 5.68307L26.921 0.783069L25.9402 0.978223L26.9152 5.87822L27.896 5.68307ZM17.746 2.09016L15.2835 2.57766L15.4777 3.55863L17.9402 3.07113L17.746 2.09016ZM14.9862 3.37543L18.4237 7.78793L19.2126 7.17337L15.7751 2.76087L14.9862 3.37543ZM18.9157 7.97103L21.3657 7.48353L21.1705 6.50276L18.7205 6.99026L18.9157 7.97103ZM21.6631 6.68656L18.2381 2.27406L17.4481 2.88723L20.8731 7.29973L21.6631 6.68656ZM11.6162 3.29113L9.15374 3.80363L9.35749 4.78266L11.82 4.27016L11.6162 3.29113ZM8.86118 4.60043L12.2987 9.01292L13.0876 8.39837L9.65005 3.98587L8.86118 4.60043ZM12.7907 9.19603L15.2407 8.70853L15.0455 7.72776L12.5955 8.21526L12.7907 9.19603ZM15.5389 7.91264L12.1139 3.47514L11.3223 4.08615L14.7473 8.52365L15.5389 7.91264ZM5.48545 4.53979L4.26045 4.77729L4.45078 5.75901L5.67578 5.52151L5.48545 4.53979ZM4.25888 4.77759C3.87232 4.85382 3.5046 5.00561 3.17682 5.22425L3.73173 6.05616C3.95002 5.91055 4.19491 5.80946 4.45235 5.7587L4.25888 4.77759ZM3.17682 5.22425C2.84904 5.44289 2.56764 5.72408 2.34876 6.0517L3.18027 6.60722C3.32603 6.38903 3.51344 6.20177 3.73173 6.05616L3.17682 5.22425ZM2.34876 6.0517C2.12988 6.37932 1.97783 6.74693 1.90132 7.13344L2.88228 7.32762C2.93323 7.07022 3.0345 6.82541 3.18027 6.60722L2.34876 6.0517ZM1.90132 7.13344C1.82481 7.51995 1.82534 7.91776 1.9029 8.30406L2.88334 8.10723C2.83169 7.84996 2.83133 7.58503 2.88228 7.32762L1.90132 7.13344ZM1.90273 8.30322L2.39023 10.7532L3.371 10.5581L2.8835 8.10807L1.90273 8.30322ZM2.97771 11.1461L9.10271 9.93363L8.90852 8.95266L2.78352 10.1652L2.97771 11.1461ZM9.40059 9.13656L5.97559 4.72406L5.18564 5.33723L8.61064 9.74973L9.40059 9.13656ZM24.8806 13.1556V23.1556H25.8806V13.1556H24.8806ZM25.3806 22.6556H5.38062V23.6556H25.3806V22.6556ZM5.88062 23.1556V13.1556H4.88062V23.1556H5.88062ZM5.38062 13.6556H25.3806V12.6556H5.38062V13.6556ZM27.8806 10.1556H2.88062V11.1556H27.8806V10.1556ZM2.38062 10.6556V23.1556H3.38062V10.6556H2.38062ZM2.38062 23.1556C2.38062 23.9513 2.69669 24.7144 3.2593 25.277L3.9664 24.5699C3.59133 24.1948 3.38062 23.6861 3.38062 23.1556H2.38062ZM3.2593 25.277C3.82191 25.8396 4.58497 26.1556 5.38062 26.1556V25.1556C4.85018 25.1556 4.34148 24.9449 3.9664 24.5699L3.2593 25.277ZM5.38062 26.1556H25.3806V25.1556H5.38062V26.1556ZM25.3806 26.1556C27.0443 26.1556 28.3806 24.8193 28.3806 23.1556H27.3806C27.3806 24.267 26.492 25.1556 25.3806 25.1556V26.1556ZM28.3806 23.1556V10.6556H27.3806V23.1556H28.3806Z" fill="#101010" mask="url(#path-1-inside-1_12_4)"/>
</svg>
